<?xml version="1.0" standalone="no"?>
<!DOCTYPE svg PUBLIC "-//W3C//DTD SVG 20010904//EN"
 "http://www.w3.org/TR/2001/REC-SVG-20010904/DTD/svg10.dtd">
<svg version="1.0" xmlns="http://www.w3.org/2000/svg"
 width="1024.000000pt" height="1024.000000pt" viewBox="0 0 1024.000000 1024.000000"
 preserveAspectRatio="xMidYMid meet">

<g transform="translate(0.000000,1024.000000) scale(0.100000,-0.100000)"
fill="#000000" stroke="none">
<path d="M4970 8934 c-618 -42 -1135 -181 -1672 -450 -409 -205 -765 -480
-1112 -859 -400 -438 -680 -916 -850 -1455 -76 -240 -122 -455 -168 -775 -17
-122 -17 -667 0 -795 84 -611 243 -1092 509 -1543 317 -537 750 -994 1250
-1321 370 -241 782 -418 1228 -526 563 -137 1126 -153 1715 -49 580 102 1171
349 1610 672 387 285 737 655 995 1051 318 488 525 1047 601 1626 22 167 30
636 15 812 -39 430 -148 853 -320 1243 -118 266 -250 492 -415 712 -357 474
-767 847 -1229 1118 -144 84 -440 225 -608 289 -306 117 -666 200 -1014 235
-112 11 -450 21 -535 15z m590 -548 c561 -84 1046 -265 1498 -559 115 -74 145
-99 105 -82 -170 69 -492 96 -703 60 -127 -22 -314 -85 -427 -144 -302 -159
-557 -437 -674 -733 -114 -290 -130 -659 -42 -958 14 -47 28 -94 30 -105 3
-16 -23 -49 -103 -134 l-108 -114 -109 113 c-78 81 -106 117 -101 129 72 170
114 473 94 675 -34 348 -172 636 -422 884 -359 355 -861 489 -1359 363 -62
-16 -125 -33 -138 -37 -42 -13 -16 10 101 89 191 128 514 286 761 373 270 93
600 166 882 194 136 13 591 4 715 -14z m-1774 -1105 c113 -23 191 -55 289
-116 257 -160 404 -413 422 -726 12 -221 -37 -400 -169 -606 -36 -56 -38 -64
-26 -82 8 -11 197 -207 421 -435 l407 -414 92 97 c51 53 243 248 428 434 184
186 336 340 338 342 2 2 -19 41 -46 87 -100 165 -133 280 -139 478 -4 120 -1
161 15 235 39 177 108 309 225 432 88 93 169 152 279 202 146 67 191 76 388
76 170 -1 178 -1 263 -32 115 -41 185 -83 274 -167 115 -108 187 -238 234
-421 32 -128 32 -324 0 -445 -87 -326 -324 -570 -648 -666 -151 -45 -405 -44
-534 1 l-37 14 -209 -212 c-561 -569 -688 -699 -692 -708 -1 -6 280 -294 626
-642 997 -1003 1147 -1156 1166 -1190 40 -70 1 -188 -75 -228 -76 -39 -196
-13 -242 53 -8 12 -75 82 -148 157 -74 75 -392 402 -708 726 -316 325 -636
653 -712 731 l-138 140 -243 -245 c-350 -355 -1220 -1241 -1360 -1387 -49 -50
-95 -102 -104 -114 -9 -12 -36 -35 -61 -51 -106 -67 -240 -17 -272 102 -12 45
-6 87 19 135 9 17 415 433 903 925 l887 893 -142 146 c-178 181 -544 555 -658
674 l-86 89 -74 -19 c-108 -28 -353 -26 -461 4 -163 44 -262 96 -384 200 -99
84 -164 167 -223 287 -76 153 -96 238 -95 420 1 178 19 259 88 400 165 334
537 505 922 426z m-1476 -368 c-119 -385 -74 -824 123 -1175 162 -290 459
-541 780 -659 175 -65 265 -81 467 -84 l185 -4 167 -161 168 -162 -21 -27
c-11 -14 -364 -370 -783 -791 -864 -867 -819 -814 -839 -993 -6 -50 -11 -94
-13 -95 -10 -13 -207 235 -313 393 -358 534 -540 1111 -558 1765 -11 406 41
755 169 1149 98 303 275 646 473 917 18 26 16 -4 -5 -73z m5817 -223 c289
-501 436 -1024 450 -1598 14 -557 -82 -1021 -314 -1515 -124 -265 -332 -582
-512 -777 l-50 -55 -1 60 c0 77 -19 147 -61 225 -34 65 -270 310 -1193 1238
l-391 392 166 166 166 166 199 2 c223 3 320 20 505 90 396 148 710 473 853
884 64 183 81 284 80 482 0 181 -13 283 -54 425 -11 38 -20 74 -20 79 0 16
113 -154 177 -264z m-2352 -3685 c215 -220 464 -476 555 -570 328 -338 335
-344 443 -360 26 -4 49 -11 52 -15 6 -10 -209 -120 -330 -168 -627 -249 -1310
-322 -1967 -212 -237 40 -501 115 -738 210 -118 47 -267 118 -320 151 l-35 23
44 8 c68 12 130 47 191 107 31 31 146 148 255 261 110 113 301 309 425 435
124 127 348 358 499 514 l275 283 131 -134 c72 -73 306 -313 520 -533z"/>
<path d="M6600 7121 c-105 -22 -175 -51 -262 -108 -77 -51 -178 -156 -227
-237 -44 -74 -91 -215 -91 -275 0 -113 118 -193 210 -143 46 25 76 71 90 135
27 131 122 251 245 309 55 25 85 32 171 38 96 7 109 10 142 37 46 37 66 91 52
142 -31 114 -129 144 -330 102z"/>
</g>
</svg>
